<?xml version="1.0" encoding="UTF-8"?><svg id="Layer_2" xmlns="http://www.w3.org/2000/svg" viewBox="0 0 83.53 73.44"><path d="M82.77,26.42c-1.38,5.93-4.73,10.79-8.96,15.04-10.42,10.46-20.89,20.88-31.33,31.31-.23,.23-.46,.43-.72,.67-.26-.24-.49-.44-.72-.67-10.44-10.43-20.91-20.85-31.33-31.31-4.23-4.25-7.58-9.11-8.96-15.04C-1.27,17.72,.67,10.1,7.83,4.43,14.31-.69,21.63-1.04,29.22,1.7c4.29,1.55,7.96,4.11,11.29,7.19,.38,.35,.77,.71,1.25,1.15,.48-.44,.87-.8,1.25-1.15,3.33-3.08,7-5.64,11.29-7.19,7.59-2.74,14.91-2.39,21.39,2.73,7.16,5.67,9.1,13.29,7.08,21.99Z"/></svg>